<?xml version="1.0" encoding="utf-8"?>
<!-- Generator: Adobe Illustrator 28.2.0, SVG Export Plug-In . SVG Version: 6.00 Build 0)  -->
<svg version="1.1" id="Layer_1" xmlns="http://www.w3.org/2000/svg" xmlns:xlink="http://www.w3.org/1999/xlink" x="0px" y="0px"
	 viewBox="0 0 1920 1080" enable-background="new 0 0 1920 1080" xml:space="preserve">
<g>
	<path fill="#FF0200" d="M101.6,733.2c-35.2,0-63.8-28.6-63.8-63.8V351.9c0-35.2,28.6-63.8,63.8-63.8h371.9
		c35.2,0,63.8,28.6,63.8,63.8v317.6c0,35.2-28.6,63.8-63.8,63.8H101.6z"/>
	<path d="M473.5,290.8c16.2,0,31.5,6.4,43.1,17.9c11.6,11.6,17.9,26.9,17.9,43.1v317.6c0,16.2-6.4,31.5-17.9,43.1
		c-11.6,11.6-26.9,17.9-43.1,17.9H101.6c-16.2,0-31.5-6.4-43.1-17.9c-11.6-11.6-17.9-26.9-17.9-43.1V351.9
		c0-16.2,6.4-31.5,17.9-43.1c11.6-11.6,26.9-17.9,43.1-17.9H473.5 M473.5,285.3H101.6c-36.6,0-66.6,30-66.6,66.6v317.6
		C35,706,65,736,101.6,736h371.9c36.6,0,66.6-30,66.6-66.6V351.9C540.1,315.3,510.1,285.3,473.5,285.3L473.5,285.3z"/>
</g>
<text transform="matrix(0.8704 0 0 1 184.5488 625.8994)" fill="#FFFFFF" font-family="'MSReferenceSansSerif'" font-size="342.9826px">B</text>
<path fill="#FF0000" d="M230.5,382.9l-24.9,23v-30.5c0,0,39.4-7.6,32.8-1.3"/>
<path fill="#FF0000" d="M205.5,617.9c0,0-16.3-16.5,8.3,0c24.5,16.5,24.5,16.5,24.5,16.5s-32.8,19-32.8,0"/>
<g>
	<path fill="#FF0200" d="M652.5,733.2c-35.2,0-63.8-28.6-63.8-63.8V351.9c0-35.2,28.6-63.8,63.8-63.8h371.9
		c35.2,0,63.8,28.6,63.8,63.8v317.6c0,35.2-28.6,63.8-63.8,63.8H652.5z"/>
	<path d="M1024.5,290.8c16.2,0,31.5,6.4,43.1,17.9c11.6,11.6,17.9,26.9,17.9,43.1v317.6c0,16.2-6.4,31.5-17.9,43.1
		c-11.6,11.6-26.9,17.9-43.1,17.9H652.5c-16.2,0-31.5-6.4-43.1-17.9c-11.6-11.6-17.9-26.9-17.9-43.1V351.9
		c0-16.2,6.4-31.5,17.9-43.1c11.6-11.6,26.9-17.9,43.1-17.9H1024.5 M1024.5,285.3H652.5c-36.6,0-66.6,30-66.6,66.6v317.6
		c0,36.6,30,66.6,66.6,66.6h371.9c36.6,0,66.6-30,66.6-66.6V351.9C1091,315.3,1061.1,285.3,1024.5,285.3L1024.5,285.3z"/>
</g>
<g>
	<path fill="#FF0200" d="M1203.5,733.2c-35.2,0-63.8-28.6-63.8-63.8V351.9c0-35.2,28.6-63.8,63.8-63.8h371.9
		c35.2,0,63.8,28.6,63.8,63.8v317.6c0,35.2-28.6,63.8-63.8,63.8H1203.5z"/>
	<path d="M1575.4,290.8c16.2,0,31.5,6.4,43.1,17.9c11.6,11.6,17.9,26.9,17.9,43.1v317.6c0,16.2-6.4,31.5-17.9,43.1
		c-11.6,11.6-26.9,17.9-43.1,17.9h-371.9c-16.2,0-31.5-6.4-43.1-17.9c-11.6-11.6-17.9-26.9-17.9-43.1V351.9
		c0-16.2,6.4-31.5,17.9-43.1c11.6-11.6,26.9-17.9,43.1-17.9H1575.4 M1575.4,285.3h-371.9c-36.6,0-66.6,30-66.6,66.6v317.6
		c0,36.6,30,66.6,66.6,66.6h371.9c36.6,0,66.6-30,66.6-66.6V351.9C1642,315.3,1612,285.3,1575.4,285.3L1575.4,285.3z"/>
</g>
<text transform="matrix(1.0003 0 0 1 700.0015 608.6025)" fill="#FFFFFF" font-family="'MSReferenceSansSerif'" font-size="342.9826px">M</text>
<text transform="matrix(0.91 0 0 1 1265.5039 612.5791)" fill="#FFFFFF" font-family="'MSReferenceSansSerif'" font-size="342.9826px">C</text>
</svg>
